X Lossless Decoder version 20240511 (157.1)

XLD extraction logfile from 2024-11-01 14:58:15 +0900

DAZBEE / 眠らない夢

Used drive : HL-DT-ST BD-RE  BH16NS60 (revision 1.02)
Media type : Pressed CD

Ripper mode             : XLD Secure Ripper
Disable audio cache     : OK for the drive with a cache less than 1375KiB
Make use of C2 pointers : NO
Read offset correction  : 6
Max retry count         : 20
Gap status              : Analyzed, Appended (except HTOA)

TOC of the extracted CD
     Track |   Start  |  Length  | Start sector | End sector 
    ---------------------------------------------------------
        1  | 00:00:00 | 02:01:19 |         0    |     9093   
        2  | 02:01:19 | 03:22:41 |      9094    |    24284   
        3  | 05:23:60 | 03:32:67 |     24285    |    40251   
        4  | 08:56:52 | 02:56:63 |     40252    |    53514   

AccurateRip Summary
    Disc not found in AccurateRip DB.

All Tracks
    Album gain               : -5.72 dB
    Peak                     : 0.976318
    Statistics
        Read error                           : 0
        Jitter error (maybe fixed)           : 0
        Retry sector count                   : 0
        Damaged sector count                 : 0

Track 01
    Filename : /Volumes/Bookshelves/[241027] DAZBEE - 眠らない夢/01 Intro.flac
    Pre-gap length : 00:02:00

    Track gain               : -5.85 dB
    Peak                     : 0.946014
    CRC32 hash (test run)    : E2BD3A53
    CRC32 hash               : E2BD3A53
    CRC32 hash (skip zero)   : 1465A0B3
    AccurateRip v1 signature : D1018A06
    AccurateRip v2 signature : C5AC595B
        ->Track not present in AccurateRip database.
    Statistics
        Read error                           : 0
        Jitter error (maybe fixed)           : 0
        Retry sector count                   : 0
        Damaged sector count                 : 0

Track 02
    Filename : /Volumes/Bookshelves/[241027] DAZBEE - 眠らない夢/02 Nemuranai Yume.flac
    Pre-gap length : 00:01:00

    Track gain               : -5.60 dB
    Peak                     : 0.976318
    CRC32 hash (test run)    : 456AD336
    CRC32 hash               : 456AD336
    CRC32 hash (skip zero)   : BEFFB8BE
    AccurateRip v1 signature : 6A5D9FC5
    AccurateRip v2 signature : ABB3AC47
        ->Track not present in AccurateRip database.
    Statistics
        Read error                           : 0
        Jitter error (maybe fixed)           : 0
        Retry sector count                   : 0
        Damaged sector count                 : 0

Track 03
    Filename : /Volumes/Bookshelves/[241027] DAZBEE - 眠らない夢/03 Cabo da Roca.flac
    Pre-gap length : 00:01:00

    Track gain               : -6.12 dB
    Peak                     : 0.956299
    CRC32 hash (test run)    : 02073AD1
    CRC32 hash               : 02073AD1
    CRC32 hash (skip zero)   : 77FD4498
    AccurateRip v1 signature : 7780E211
    AccurateRip v2 signature : 1F4EFD2B
        ->Track not present in AccurateRip database.
    Statistics
        Read error                           : 0
        Jitter error (maybe fixed)           : 0
        Retry sector count                   : 0
        Damaged sector count                 : 0

Track 04
    Filename : /Volumes/Bookshelves/[241027] DAZBEE - 眠らない夢/04 Outro.flac
    Pre-gap length : 00:01:00

    Track gain               : -5.22 dB
    Peak                     : 0.946259
    CRC32 hash (test run)    : 7CC5A785
    CRC32 hash               : 7CC5A785
    CRC32 hash (skip zero)   : C44B774B
    AccurateRip v1 signature : 1F3F1D62
    AccurateRip v2 signature : 02E9247A
        ->Track not present in AccurateRip database.
    Statistics
        Read error                           : 0
        Jitter error (maybe fixed)           : 0
        Retry sector count                   : 0
        Damaged sector count                 : 0

No errors occurred

End of status report

-----BEGIN XLD SIGNATURE-----
31cuehYl4NegxZhov7LhnZnHvCsBtGXpjGFjRC5DKAAmaOdMsp3j8tWBI7S5jjq7A4GsLrTWkEdlt1.8nzUEXI4xnTsn.xubCUikCqu
-----END XLD SIGNATURE-----
